<svg width="813" height="753" viewBox="0 0 813 753" fill="none" xmlns="http://www.w3.org/2000/svg">
<path d="M748.686 463.552H395.097V256.066L393.472 255.021L450.867 199.119C479.878 170.763 518.75 154.754 559.316 154.455L664.825 153.491L664.977 153.671L748.932 253.549L748.684 256.314L748.686 463.552Z" fill="#F2F2F2"/>
<path d="M673.164 192.642H461.692V194.642H673.164V192.642Z" fill="white"/>
<path d="M652.164 213.642H440.692V215.642H652.164V213.642Z" fill="white"/>
<path d="M775.09 351.131H736.65V385.108H775.09V351.131Z" fill="white"/>
<path d="M775.09 292.322H736.65V325.76H775.09V292.322Z" fill="white"/>
<path d="M725.654 156.855H691.184V276.155H725.654V156.855Z" fill="#F2F2F2"/>
<path d="M748.686 463.551H559.462V326.052C559.472 294.257 570.806 263.504 591.432 239.307L664.681 153.431L748.686 253.436V463.551Z" fill="#E6E6E6"/>
<path d="M686.739 360.147H648.299V394.124H686.739V360.147Z" fill="white"/>
<path d="M686.739 301.337H648.299V334.775H686.739V301.337Z" fill="white"/>
<path d="M503.125 351.131H464.685V385.108H503.125V351.131Z" fill="white"/>
<path d="M503.125 292.322H464.685V325.76H503.125V292.322Z" fill="white"/>
<path d="M449.964 91.4046H408.134V236.205H449.964V91.4046Z" fill="#F2F2F2"/>
<path d="M477.814 463.55H48.8611V211.77L46.9531 210.541L47.4033 210.103L125.752 133.788C155.026 105.173 194.252 89.0181 235.187 88.7167L376.081 87.4296L376.233 87.6098L478.105 208.801L477.812 212.113L477.814 463.55Z" fill="#F2F2F2"/>
<path d="M477.814 463.55H248.356V278.672C248.364 251.786 257.949 225.781 275.39 205.319L375.959 87.4145L477.814 208.667V463.55Z" fill="#E6E6E6"/>
<path d="M402.071 338.151H364.966V370.948H402.071V338.151Z" fill="white"/>
<path d="M402.071 281.151H364.966V313.948H402.071V281.151Z" fill="white"/>
<path d="M179.874 327.207H133.217V368.446H179.874V327.207Z" fill="white"/>
<path d="M179.874 255.827H133.217V296.412H179.874V255.827Z" fill="white"/>
<path d="M928.825 462.03H1V464.315H928.825V462.03Z" fill="#2647BD"/>
<path d="M140.265 420.009C158.63 420.009 173.517 389.633 173.517 352.161C173.517 314.69 158.63 284.313 140.265 284.313C121.901 284.313 107.013 314.69 107.013 352.161C107.013 389.633 121.901 420.009 140.265 420.009Z" fill="#F16133"/>
<path d="M143.336 463.217C130.018 383.317 143.202 303.697 143.336 302.903L145.927 303.342C145.793 304.132 132.685 383.33 145.927 462.786L143.336 463.217Z" fill="#2647BD"/>
<path d="M169.537 337.569L139.468 353.652L140.707 355.97L170.776 339.886L169.537 337.569Z" fill="#2647BD"/>
<path d="M108.975 345.625L107.735 347.942L137.8 364.035L139.04 361.718L108.975 345.625Z" fill="#2647BD"/>
<path d="M59.7468 402.326C86.2498 402.326 107.735 358.488 107.735 304.411C107.735 250.334 86.2498 206.496 59.7468 206.496C33.2438 206.496 11.7588 250.334 11.7588 304.411C11.7588 358.488 33.2438 402.326 59.7468 402.326Z" fill="#F16133"/>
<path d="M65.092 464.531C45.898 349.369 64.898 234.626 65.092 233.48L67.003 233.804C66.809 234.947 47.865 349.381 67.003 464.213L65.092 464.531Z" fill="#2647BD"/>
<path d="M102.431 284.171L59.0361 307.382L59.9507 309.092L103.346 285.88L102.431 284.171Z" fill="#2647BD"/>
<path d="M14.1538 295.804L13.2388 297.513L56.6274 320.737L57.5424 319.028L14.1538 295.804Z" fill="#2647BD"/>
<path d="M662.822 107.332L673.341 98.9185C665.169 98.0185 661.811 102.473 660.441 106.001C654.057 103.35 647.106 106.824 647.106 106.824L668.153 114.465C667.091 111.629 665.243 109.155 662.825 107.331L662.822 107.332Z" fill="#2647BD"/>
<path d="M472.727 42.5315L483.246 34.1175C475.074 33.2175 471.716 37.6725 470.346 41.2005C463.962 38.5495 457.011 42.0235 457.011 42.0235L478.058 49.6645C476.995 46.8283 475.146 44.3539 472.727 42.5315Z" fill="#2647BD"/>
<path d="M737.488 58.1975L748.007 49.7835C739.835 48.8835 736.477 53.3385 735.107 56.8665C728.723 54.2155 721.772 57.6895 721.772 57.6895L742.819 65.3305C741.757 62.4943 739.909 60.0195 737.491 58.1965L737.488 58.1975Z" fill="#2647BD"/>
<path d="M290.324 448.811C287.527 448.811 284.779 449.549 282.358 450.949C279.9 448.727 276.849 447.266 273.576 446.744C270.304 446.222 266.95 446.66 263.922 448.007C260.894 449.354 258.322 451.55 256.517 454.33C254.713 457.11 253.755 460.353 253.758 463.667H306.265C305.979 459.635 304.175 455.86 301.218 453.104C298.26 450.348 294.368 448.814 290.325 448.812L290.324 448.811Z" fill="#2647BD"/>
<path d="M563.432 448.811C560.635 448.811 557.887 449.549 555.466 450.949C553.008 448.727 549.957 447.266 546.684 446.744C543.412 446.222 540.058 446.66 537.03 448.007C534.002 449.354 531.429 451.55 529.625 454.33C527.821 457.11 526.863 460.353 526.866 463.667H579.373C579.087 459.634 577.283 455.859 574.326 453.103C571.368 450.346 567.475 448.813 563.432 448.811Z" fill="#2647BD"/>
<path d="M428.902 437.349H354.316V439.755H365.948V462.612H368.354V439.755H413.66V462.612H416.066V439.755H428.901L428.902 437.349Z" fill="#2647BD"/>
<path d="M429.049 430.151H354.463V432.557H429.049V430.151Z" fill="#2647BD"/>
<path d="M429.049 424.136H354.463V426.542H429.049V424.136Z" fill="#2647BD"/>
<path d="M802.924 416.576C803.269 416.38 803.567 416.111 803.796 415.787C804.026 415.464 804.182 415.093 804.253 414.703C804.324 414.313 804.309 413.911 804.208 413.528C804.107 413.144 803.924 412.787 803.67 412.482L806.826 387.959L800.926 388.207L799.681 412.233C799.196 412.693 798.897 413.315 798.84 413.981C798.784 414.647 798.973 415.311 799.373 415.846C799.773 416.381 800.355 416.752 801.01 416.886C801.664 417.021 802.346 416.911 802.924 416.576H802.924Z" fill="#FFB6B6"/>
<path d="M805.178 428.172L809.49 460.118H812.278L813.114 426.608L805.178 428.172Z" fill="#FFB6B6"/>
<path d="M813.292 371.567C816.458 371.567 819.025 369.001 819.025 365.834C819.025 362.668 816.458 360.101 813.292 360.101C810.126 360.101 807.559 362.668 807.559 365.834C807.559 369.001 810.126 371.567 813.292 371.567Z" fill="#FFB6B6"/>
<path d="M823.747 408.636L826.153 414.261L823.747 421.831V429.664L814.534 429.719L814.334 420.085L813.094 429.719H803.713L801.977 410.409L804.468 405.839L823.747 408.636Z" fill="#2F2E41"/>
<path d="M811.451 373.444L810.773 374.7C810.773 374.7 804.927 375.839 801.973 379.057L805.938 387.157L802.266 410.602L823.914 409.159L824.682 391.108L827.94 378.483C827.94 378.483 822.293 374.61 819.856 375.017L819.003 373.449L811.451 373.444Z" fill="#F16133"/>
<path d="M807.535 379.901L801.971 379.058C801.971 379.058 800.448 387.994 800.46 390.034L807.176 391.104L807.535 379.901Z" fill="#F16133"/>
<path d="M812.82 462.214H802.807V462.087C802.807 461.053 803.218 460.061 803.949 459.33C804.681 458.598 805.673 458.188 806.707 458.188H812.82V462.214Z" fill="#2F2E41"/>
<path d="M815.54 368.165C815.102 368.01 814.651 367.892 814.192 367.813C813.438 367.641 812.777 367.188 812.342 366.548C811.907 365.907 811.731 365.126 811.849 364.36C811.912 364.178 811.941 363.985 811.933 363.792C811.873 363.366 811.374 363.091 810.896 362.991C810.41 362.942 809.928 362.862 809.452 362.751C809.122 362.634 808.829 362.43 808.604 362.161C808.379 361.891 808.232 361.566 808.176 361.219C808.105 360.546 808.277 359.87 808.66 359.311L808.833 359.745C809.089 359.56 809.286 359.303 809.397 359.008C809.585 359.03 809.764 359.098 809.919 359.207C810.073 359.315 810.199 359.461 810.283 359.629C810.56 359.772 810.6 359.185 810.907 359.099C811.04 359.084 811.174 359.113 811.289 359.181C811.951 359.344 812.647 359.309 813.289 359.081C814.44 358.842 815.628 358.842 816.778 359.081C817.534 359.206 818.245 359.526 818.84 360.008C819.257 360.419 819.584 360.911 819.801 361.454C820.439 362.703 820.708 364.108 820.579 365.504C820.404 366.657 819.861 367.723 819.032 368.542C818.59 368.987 817.149 370.543 816.359 370.274C815.367 369.94 816.71 368.705 815.54 368.165Z" fill="#2F2E41"/>
<path d="M742.406 414.345C742.651 414.197 742.86 413.998 743.02 413.761C743.179 413.525 743.285 413.256 743.329 412.974C743.374 412.691 743.355 412.403 743.276 412.129C743.197 411.854 743.059 411.601 742.871 411.385L745.41 385.91L741.171 386.19L739.997 411.276C739.656 411.616 739.451 412.069 739.421 412.549C739.392 413.03 739.54 413.504 739.837 413.883C740.135 414.261 740.561 414.517 741.034 414.603C741.508 414.688 741.997 414.596 742.407 414.345H742.406Z" fill="#FEB8B8"/>
<path d="M739.453 384.963L740.564 393.411L740.41 398.588L745.073 399.015L746.007 394.708L746.522 383.309C746.561 382.448 746.273 381.605 745.715 380.95C745.157 380.294 744.371 379.874 743.516 379.775C742.629 379.672 741.737 379.922 741.033 380.47C740.328 381.019 739.868 381.823 739.751 382.708L739.453 384.963Z" fill="#2F2E41"/>
<path d="M757.309 459.288H760.134L761.479 448.378H757.305L757.309 459.288Z" fill="#FEB8B8"/>
<path d="M756.588 462.031H765.708V461.916C765.708 460.974 765.334 460.071 764.669 459.406C764.003 458.74 763.1 458.366 762.159 458.366H756.589L756.588 462.031Z" fill="#2F2E41"/>
<path d="M733.955 459.288H736.783L738.129 448.378H733.955V459.288Z" fill="#FEB8B8"/>
<path d="M733.233 462.031H742.353V461.916C742.353 460.974 741.979 460.071 741.314 459.406C740.648 458.74 739.745 458.366 738.804 458.366H733.234L733.233 462.031Z" fill="#2F2E41"/>
<path d="M744.953 375.762C748.34 375.762 751.085 373.016 751.085 369.629C751.085 366.243 748.34 363.497 744.953 363.497C741.566 363.497 738.821 366.243 738.821 369.629C738.821 373.016 741.566 375.762 744.953 375.762Z" fill="#FEB8B8"/>
<path d="M745.746 378.25L741.491 378.737C740.456 380.204 739.785 381.896 739.534 383.674C739.282 385.452 739.456 387.264 740.043 388.961L743.254 398.25C743.254 398.25 738.797 407.186 738.797 415.482C738.797 423.778 730.308 453.393 730.308 453.393L742.257 454.638L747.471 423.091L754.656 454.511L762.856 453.177L758.339 411.977L755.354 398.417L755.228 391.815C755.228 391.815 756.497 386.853 753.321 383.677L749.443 378.276L745.746 378.25Z" fill="#2F2E41"/>
<path d="M752.101 367.44H743.087V363.512C745.065 362.726 747 362.058 748.17 363.512C749.212 363.512 750.211 363.925 750.948 364.662C751.684 365.399 752.098 366.398 752.098 367.44H752.101Z" fill="#2F2E41"/>
<path d="M742.596 362.819C737.209 362.819 735.701 369.571 735.701 373.38C735.701 375.504 736.662 376.264 738.171 376.521L738.704 373.677L739.953 376.643C740.377 376.643 740.823 376.638 741.284 376.629L741.707 375.757L742.651 376.612C746.432 376.618 749.489 377.17 749.489 373.38C749.486 369.572 748.164 362.819 742.596 362.819Z" fill="#2F2E41"/>
<path opacity="0.2" d="M750.558 400.114L750.786 390.223L751.386 385.832L752.88 390.182L750.558 400.114Z" fill="black"/>
<path d="M740.225 398.294H740.224C738.796 398.291 737.428 397.721 736.418 396.711C735.409 395.701 734.841 394.332 734.839 392.904V382.781C734.843 381.354 735.411 379.986 736.42 378.977C737.429 377.967 738.797 377.399 740.224 377.395C742.152 377.397 744 378.164 745.363 379.527C746.726 380.89 747.493 382.738 747.496 384.665V391.024C747.493 392.951 746.727 394.799 745.364 396.162C744.001 397.525 742.153 398.292 740.225 398.294Z" fill="#F16133"/>
<path d="M752.224 391.177C753.576 389.461 754.289 387.33 754.242 385.147C754.242 380.757 751.627 377.186 748.413 377.186C747.489 377.232 746.592 377.517 745.811 378.013C745.029 378.508 744.389 379.198 743.953 380.015L744.437 380.315C744.823 379.582 745.392 378.961 746.089 378.513C746.785 378.064 747.586 377.803 748.413 377.755C751.313 377.755 753.673 381.071 753.673 385.148C753.72 387.197 753.055 389.198 751.79 390.811L752.224 391.177Z" fill="#F16133"/>
<path d="M749.461 415.372C749.72 415.197 749.937 414.967 750.098 414.698C750.258 414.429 750.358 414.129 750.389 413.818C750.421 413.506 750.384 413.192 750.281 412.897C750.179 412.601 750.012 412.332 749.794 412.107L751.057 384.083L746.436 384.643L746.642 412.159C746.289 412.551 746.093 413.059 746.089 413.586C746.086 414.113 746.276 414.623 746.623 415.019C746.971 415.415 747.452 415.67 747.975 415.735C748.498 415.8 749.027 415.671 749.461 415.372Z" fill="#FEB8B8"/>
<path d="M744.483 383.405L746.201 392.581L746.34 398.254L751.466 398.444L752.232 393.678L752.118 381.178C752.109 380.235 751.744 379.33 751.094 378.646C750.444 377.962 749.56 377.55 748.618 377.492C747.642 377.432 746.681 377.759 745.942 378.401C745.204 379.043 744.748 379.95 744.673 380.925L744.483 383.405Z" fill="#2F2E41"/>
<path d="M702.009 437.349H627.423V439.755H639.055V462.612H641.461V439.755H686.767V462.612H689.173V439.755H702.008L702.009 437.349Z" fill="#2647BD"/>
<path d="M702.156 430.151H627.57V432.557H702.156V430.151Z" fill="#2647BD"/>
<path d="M702.156 424.136H627.57V426.542H702.156V424.136Z" fill="#2647BD"/>
<path d="M417.155 410.55C420.092 410.55 422.473 408.169 422.473 405.232C422.473 402.295 420.092 399.914 417.155 399.914C414.218 399.914 411.837 402.295 411.837 405.232C411.837 408.169 414.218 410.55 417.155 410.55Z" fill="#A0616A"/>
<path d="M427.692 459.389H430.414L431.714 448.889H427.692V459.389Z" fill="#A0616A"/>
<path d="M426.998 458.501H432.359C433.265 458.501 434.134 458.861 434.775 459.502C435.416 460.143 435.776 461.011 435.776 461.917V462.028H426.998V458.501Z" fill="#2F2E41"/>
<path d="M417.156 453.808L414.95 455.408L407.75 447.66L411.005 445.305L417.156 453.808Z" fill="#A0616A"/>
<path d="M419.264 455.545L412.152 460.691L412.087 460.601C411.556 459.867 411.338 458.952 411.482 458.058C411.625 457.163 412.118 456.362 412.852 455.83L417.196 452.687L419.264 455.545Z" fill="#2F2E41"/>
<path d="M420.134 412.995C419.262 412.388 418.224 412.062 417.161 412.062C416.099 412.062 415.061 412.388 414.189 412.995L412.052 430.823H418.47L419.421 425.123L421.56 416.566L420.134 412.995Z" fill="#F16133"/>
<path d="M426.564 440.531L415.045 436.769L409.554 441.126L415.388 450.044L412.337 454.044L412.25 453.944C411.871 453.513 402.979 443.351 403.005 440.469C403.071 438.514 403.401 436.576 403.987 434.709L406.876 430.609L410.976 429.404L424.548 431.303H424.57L430.054 434.641C430.597 434.992 431.055 435.46 431.393 436.01C431.731 436.561 431.94 437.181 432.006 437.824C432.241 439.943 432.715 456.916 432.72 457.087V457.198H426.806L426.564 440.531Z" fill="#2F2E41"/>
<path d="M419.262 436.27C417.262 435.38 414.703 431.906 414.282 431.32C413.458 431.768 407.451 434.979 405.757 434.154C405.022 434.527 404.462 435.173 404.199 435.954L404.149 436.205L404.004 435.994C403.977 435.955 401.368 432.075 404.743 429.664C406.508 428.538 407.898 426.911 408.735 424.991L407.065 416.165L407.109 416.124C407.246 415.997 410.497 413.006 413.463 412.65L415.293 412.327L415.373 419.293V428.211C416.851 428.025 419.19 412.443 419.19 412.443L420.412 412.891C420.728 412.952 424.277 413.661 425.219 415.073L425.25 415.119L422.022 423.847L421.078 425.268V427.087L426.594 431.887L426.516 431.969C426.328 432.169 422.261 436.396 419.892 436.395C419.676 436.399 419.461 436.356 419.262 436.27Z" fill="#2647BD"/>
<path d="M415.817 437.855C415.855 437.553 415.959 437.264 416.121 437.006C416.283 436.749 416.5 436.53 416.756 436.365C417.012 436.2 417.301 436.094 417.603 436.053C417.904 436.012 418.211 436.038 418.502 436.128L421.55 432.474L424.222 433.785L419.845 438.885C419.661 439.364 419.307 439.758 418.852 439.994C418.396 440.229 417.87 440.289 417.373 440.162C416.876 440.035 416.444 439.73 416.157 439.305C415.87 438.88 415.749 438.365 415.817 437.857V437.855Z" fill="#A0616A"/>
<path d="M417.971 434.757L422.753 428.302L421.569 421.902L423.491 414.696L423.539 414.675C424.062 414.448 424.648 414.408 425.197 414.561C425.34 414.621 425.469 414.709 425.577 414.82C425.684 414.932 425.767 415.064 425.821 415.209C426.297 416.398 427.444 428.509 427.492 429.047C427.393 430.195 427.15 431.326 426.768 432.413C426.291 433.366 421.944 438.175 421.76 438.38L421.684 438.464L417.971 434.757Z" fill="#2647BD"/>
<path d="M421.724 403.863C419.954 406.089 416.924 405.681 414.493 404.863C414.634 406.646 414.15 408.421 413.124 409.885C413.437 408.622 412.117 408.371 411.346 407.901C411.046 407.525 411.296 406.965 411.174 406.501C409.79 404.879 408.874 403.655 410.65 401.751C411.69 400.359 412.938 398.622 414.919 398.987C416.487 397.158 419.055 397.634 420.808 398.913C421.596 399.497 422.313 400.17 422.944 400.92C422.742 401.908 422.367 402.851 421.835 403.706" fill="#2F2E41"/>
<path d="M417.659 439.409C417.621 439.108 417.517 438.818 417.355 438.56C417.192 438.303 416.976 438.084 416.72 437.919C416.464 437.754 416.175 437.648 415.873 437.607C415.571 437.566 415.264 437.592 414.974 437.682L411.926 434.028L409.254 435.339L413.631 440.439C413.815 440.918 414.168 441.312 414.624 441.548C415.079 441.783 415.606 441.843 416.102 441.716C416.599 441.589 417.032 441.284 417.319 440.859C417.606 440.434 417.727 439.919 417.659 439.41V439.409Z" fill="#A0616A"/>
<path d="M411.749 438.754C411.476 438.554 405.065 433.73 404.349 432.298C403.633 430.866 403.809 426.614 403.819 426.421C404.307 423.356 404.999 420.327 405.891 417.353C406.014 417.031 406.199 416.736 406.436 416.485C406.673 416.235 406.957 416.033 407.272 415.892C407.587 415.751 407.926 415.674 408.271 415.664C408.616 415.654 408.959 415.712 409.282 415.835C409.308 415.845 409.334 415.856 409.36 415.866L409.434 415.897L408.361 428.415L414.214 436.178L411.83 438.813L411.749 438.754Z" fill="#2647BD"/>
<path d="M402.464 167.745L393.496 146.94L375.494 147.261L364.574 168.003L364.794 168.28H364.716V211.423H402.44V168.279L402.464 167.745Z" fill="#F2F2F2"/>
<path d="M682.828 219.822L675.581 204.615L661.034 204.849L652.209 220.011L652.387 220.213H652.324V251.749H682.809V220.213L682.828 219.822Z" fill="#F2F2F2"/>
<path d="M332.74 137.854H121.269V139.854H332.74V137.854Z" fill="white"/>
<path d="M311.74 158.854H100.269V160.854H311.74V158.854Z" fill="white"/>
<path d="M725.654 162.645H691.184V164.645H725.654V162.645Z" fill="white"/>
<path d="M725.654 183.645H691.184V185.645H725.654V183.645Z" fill="white"/>
<path d="M449.964 98.6447H408.134V100.645H449.964V98.6447Z" fill="white"/>
<path d="M449.964 119.645H408.134V121.645H449.964V119.645Z" fill="white"/>
<path d="M119.776 321.922C124.42 239.926 133.777 184.54 133.871 183.99L131.841 183.649C131.747 184.199 122.373 239.674 117.722 321.775C113.429 397.55 112.393 512.165 131.841 627.868L133.872 627.533C114.458 512.026 115.491 397.585 119.776 321.922Z" fill="#38A3A5"/>
<path d="M203.843 281.767L119.664 326.443L120.635 328.244L204.815 283.567L203.843 281.767Z" fill="#38A3A5"/>
<path d="M620.689 554.943C645.613 554.943 665.817 514.064 665.817 463.637C665.817 413.21 645.613 372.331 620.689 372.331C595.765 372.331 575.56 413.21 575.56 463.637C575.56 514.064 595.765 554.943 620.689 554.943Z" fill="#F16133"/>
<path d="M620.649 467.571L620.916 468.066L661.719 446.41L660.799 444.703L620.734 465.967C622.951 425.503 627.486 398.34 627.577 397.805L625.652 397.482C625.553 398.066 620.165 430.323 618.253 476.998L577.844 455.551L576.923 457.258L617.726 478.914L618.214 478.011C616.684 516.535 617.541 564.704 625.652 612.959L627.578 612.642C618.735 560.029 618.54 507.515 620.649 467.571Z" fill="#38A3A5"/>
<path d="M849.352 663.815C608.979 588.363 391.016 592.382 250.496 609.042C98.2599 627.089 1.65831 663.432 0.700692 663.796L0 661.989C0.960476 661.623 97.7894 625.195 250.264 607.119C339.953 596.499 430.446 594.204 520.565 600.263C632.441 607.771 743.014 628.487 849.941 661.97L849.352 663.815Z" fill="#38A3A5"/>
<path d="M308.979 642.491C308.979 642.491 309.654 628.485 323.473 630.113L308.979 642.491Z" fill="#38A3A5"/>
<path d="M305.075 629.162C308.895 629.162 311.991 626.092 311.991 622.304C311.991 618.516 308.895 615.445 305.075 615.445C301.255 615.445 298.158 618.516 298.158 622.304C298.158 626.092 301.255 629.162 305.075 629.162Z" fill="#F16133"/>
<path d="M305.902 633.853H303.949V647.405H305.902V633.853Z" fill="#38A3A5"/>
<path d="M560.84 645.395C560.84 645.395 561.514 631.389 575.334 633.017L560.84 645.395Z" fill="#38A3A5"/>
<path d="M556.935 632.066C560.755 632.066 563.852 628.995 563.852 625.208C563.852 621.42 560.755 618.349 556.935 618.349C553.115 618.349 550.018 621.42 550.018 625.208C550.018 628.995 553.115 632.066 556.935 632.066Z" fill="#F16133"/>
<path d="M557.762 636.757H555.81V650.309H557.762V636.757Z" fill="#38A3A5"/>
<path d="M145.954 621.195C145.954 621.195 146.628 607.189 160.447 608.817L145.954 621.195Z" fill="#38A3A5"/>
<path d="M142.049 607.866C145.869 607.866 148.966 604.796 148.966 601.008C148.966 597.22 145.869 594.149 142.049 594.149C138.229 594.149 135.132 597.22 135.132 601.008C135.132 604.796 138.229 607.866 142.049 607.866Z" fill="#F16133"/>
<path d="M142.876 612.557H140.923V626.109H142.876V612.557Z" fill="#38A3A5"/>
<path d="M252.36 602.804C252.36 602.804 253.034 588.797 266.854 590.425L252.36 602.804Z" fill="#38A3A5"/>
<path d="M248.455 589.475C252.275 589.475 255.372 586.404 255.372 582.616C255.372 578.828 252.275 575.758 248.455 575.758C244.635 575.758 241.538 578.828 241.538 582.616C241.538 586.404 244.635 589.475 248.455 589.475Z" fill="#F16133"/>
<path d="M249.282 594.165H247.33V607.717H249.282V594.165Z" fill="#38A3A5"/>
<path d="M518.863 628.939C518.863 628.939 519.537 614.933 533.357 616.561L518.863 628.939Z" fill="#38A3A5"/>
<path d="M514.958 615.61C518.778 615.61 521.875 612.54 521.875 608.752C521.875 604.964 518.778 601.893 514.958 601.893C511.138 601.893 508.042 604.964 508.042 608.752C508.042 612.54 511.138 615.61 514.958 615.61Z" fill="#F16133"/>
<path d="M515.785 620.301H513.833V633.853H515.785V620.301Z" fill="#38A3A5"/>
<path d="M819.047 600.861L859.226 659.935L821.818 697.028L816.969 687.412L825.282 668.178C825.282 668.178 823.896 650.318 819.047 645.51C814.198 640.702 792.723 611.851 792.723 611.851L819.047 600.861Z" fill="#FFB8B8"/>
<path d="M767.784 409.899C767.784 409.899 775.403 421.856 759.47 473.375C759.47 473.375 833.788 597.75 822.012 605.993C810.235 614.236 778.367 632.478 770.054 626.983C761.741 621.488 701.281 435.315 701.281 435.315L767.784 409.899Z" fill="#2F2E41"/>
<path d="M851.952 649.288L864.075 661.309C870.31 667.491 874.466 676.421 862.69 683.977C850.913 691.533 810.041 719.696 796.187 710.767C782.332 701.837 812.812 693.594 812.812 693.594C812.812 693.594 817.852 675.063 820.528 679.177C823.203 683.29 823.203 691.533 823.203 691.533L851.952 649.288Z" fill="#2F2E41"/>
<path d="M705.438 633.146C705.438 633.146 683.27 673.673 683.27 678.482C683.27 683.29 684.656 697.028 684.656 697.028L642.399 707.332L627.851 700.463L632.701 688.099C632.701 688.099 659.025 679.169 664.566 661.996C670.108 644.823 676.343 626.963 676.343 626.963L705.438 633.146Z" fill="#FFB8B8"/>
<path d="M731.069 229.929C747.138 229.929 760.164 217.012 760.164 201.078C760.164 185.145 747.138 172.228 731.069 172.228C715.001 172.228 701.974 185.145 701.974 201.078C701.974 217.012 715.001 229.929 731.069 229.929Z" fill="#FFB8B8"/>
<path d="M723.449 225.807L737.34 265.384L767.784 251.91C767.784 251.91 747.002 220.312 747.002 216.19L723.449 225.807Z" fill="#FFB8B8"/>
<path d="M719.293 366.624H756.008C756.008 366.624 782.332 406.465 767.092 448.366C764.758 454.783 762.441 463.771 760.129 474.398C754.811 498.837 749.516 531.941 744.09 562.361C736.468 605.09 728.588 642.523 720.021 643.202C702.702 644.576 669.025 644.347 669.025 637.478C669.025 630.609 691.583 431.881 691.583 431.881L696.432 423.638L697.349 387.733C697.494 382.067 699.872 376.683 703.975 372.736C708.078 368.79 713.577 366.595 719.293 366.624Z" fill="#2F2E41"/>
<path d="M682.924 678.138C682.924 678.138 690.89 691.533 688.812 701.15C686.734 710.767 683.27 709.393 668.03 710.767C652.79 712.14 600.834 712.14 600.834 702.524C600.834 692.907 641.364 680.418 641.535 684.258C641.706 688.098 643.092 695.655 638.935 697.028C634.779 698.402 638.589 697.372 638.589 697.372L682.924 678.138Z" fill="#2F2E41"/>
<path d="M723.455 452.362C723.455 452.362 720.441 501.157 700.343 486.631C680.244 472.104 708.175 445.864 708.175 445.864L723.455 452.362Z" fill="white"/>
<path d="M763.569 388.097C764.535 388.529 765.602 388.692 766.654 388.568C767.706 388.445 768.705 388.04 769.543 387.396C770.758 386.45 771.568 385.082 771.809 383.568C774.714 366.957 778.252 320.906 780.29 297.62C782.847 268.4 770.075 245.769 769.968 245.631L762.441 235.369C761.659 234.296 760.534 233.518 759.249 233.16C757.965 232.803 756.596 232.887 755.366 233.399C755.366 233.399 731.867 257.575 731.78 258.508C731.412 262.516 728.615 271.398 714.038 285.853C698.088 301.669 697.999 315.472 698.352 319.326C698.375 319.58 698.387 319.833 698.388 320.086C698.358 321.815 698.595 323.538 699.09 325.196C705.771 346.081 700.539 371.085 692.138 397.185C691.819 398.364 691.879 399.613 692.307 400.757C692.736 401.902 693.513 402.886 694.531 403.573C696.984 405.228 694.042 402.772 694.917 403.836C700.707 410.871 709.04 401.065 718.571 390.366C721.891 386.639 725.655 382.415 730.09 378.017C736.188 371.97 747.839 385.769 753.257 385.769C756.822 385.811 760.337 386.605 763.569 388.097Z" fill="#38A3A5"/>
<path d="M766.8 256.286C766.8 256.286 782.018 269.012 773.372 285.516C764.727 302.019 765.877 314.192 765.877 314.192C765.877 314.192 763.575 427.567 736.561 422.059L724.273 455.699L702.08 447.757L714.913 418.085C714.913 418.085 704.635 417.451 707.638 410.507C709.748 405.63 721.112 352.7 727.691 321.624C730.478 308.456 732.407 299.211 732.407 299.211C732.407 299.211 741.15 252.853 766.8 256.286Z" fill="#38A3A5"/>
<path opacity="0.2" d="M769.992 313.901L761.436 369.569L766.052 310.045L769.992 313.901Z" fill="black"/>
<path d="M699.326 188.296C699.326 188.296 694.434 150.548 734.345 162.927C734.345 162.927 762.85 157.74 772.197 193.095L781.663 230.156L777.05 227.666L774.899 232.328L767.424 234.205L764.225 227.909L762.678 235.554L701.454 241.607C701.454 241.607 728.875 225.526 729.31 196.707L724.086 202.18L699.326 188.296Z" fill="#2F2E41"/>
<path opacity="0.2" d="M744.856 564.532L758.508 474.328L747.405 571.706L744.856 564.532Z" fill="black"/>
<path d="M767.168 178.562C775.67 178.562 782.562 171.727 782.562 163.296C782.562 154.865 775.67 148.031 767.168 148.031C758.665 148.031 751.773 154.865 751.773 163.296C751.773 171.727 758.665 178.562 767.168 178.562Z" fill="#2F2E41"/>
<path d="M751.304 159.559C751.557 155.686 753.29 152.054 756.149 149.403C759.008 146.753 762.778 145.282 766.692 145.291C766.374 145.251 766.059 145.203 765.735 145.182C763.717 145.052 761.693 145.318 759.778 145.964C757.864 146.611 756.096 147.625 754.577 148.948C753.058 150.272 751.817 151.88 750.924 153.679C750.032 155.479 749.506 157.435 749.376 159.436C749.246 161.437 749.515 163.444 750.168 165.342C750.821 167.24 751.844 168.992 753.18 170.498C754.516 172.004 756.138 173.234 757.953 174.118C759.768 175.002 761.741 175.522 763.759 175.65C764.084 175.671 764.402 175.662 764.723 175.663C760.84 175.175 757.29 173.238 754.797 170.246C752.304 167.254 751.055 163.432 751.304 159.559Z" fill="#2F2E41"/>
<path opacity="0.2" d="M723.234 331.249L709.689 403.233L727.245 323.725L723.234 331.249Z" fill="black"/>
<path d="M724.079 221.869L716.184 227.771C708.054 223.714 701.956 214.327 699.74 205.368L708.343 201.064C709.019 210.202 715.56 216.277 724.079 221.869Z" fill="white"/>
<path d="M727.357 202.364H707.687C707.513 202.364 707.346 202.296 707.223 202.174C707.1 202.052 707.031 201.886 707.031 201.714C707.031 201.542 707.1 201.376 707.223 201.254C707.346 201.132 707.513 201.064 707.687 201.064H727.357C727.531 201.064 727.698 201.132 727.821 201.254C727.944 201.376 728.013 201.542 728.013 201.714C728.013 201.886 727.944 202.052 727.821 202.174C727.698 202.296 727.531 202.364 727.357 202.364Z" fill="white"/>
<path d="M723.423 221.869C723.316 221.869 723.21 221.843 723.116 221.793C723.021 221.743 722.94 221.671 722.88 221.583C722.82 221.495 722.783 221.394 722.771 221.289C722.76 221.183 722.775 221.076 722.815 220.978L728.06 207.974C728.092 207.895 728.139 207.822 728.199 207.761C728.259 207.7 728.331 207.651 728.41 207.617C728.489 207.583 728.574 207.565 728.661 207.564C728.747 207.563 728.832 207.579 728.912 207.61C728.993 207.642 729.065 207.689 729.127 207.749C729.189 207.809 729.238 207.88 729.272 207.959C729.306 208.037 729.323 208.122 729.324 208.207C729.325 208.293 729.309 208.378 729.277 208.457L724.031 221.46C723.983 221.581 723.899 221.684 723.79 221.757C723.682 221.83 723.554 221.869 723.423 221.869Z" fill="white"/>
<path d="M728.68 210.046C731.337 210.046 733.491 207.056 733.491 203.368C733.491 199.679 731.337 196.689 728.68 196.689C726.023 196.689 723.869 199.679 723.869 203.368C723.869 207.056 726.023 210.046 728.68 210.046Z" fill="#FFB8B8"/>
<path d="M389.691 223.486L440.928 235.113L462.576 194.626L418.765 177.665L389.691 223.486Z" fill="#2F2E41"/>
<path d="M416.914 441.43C416.914 441.43 400.443 478.857 400.443 489.744C400.443 489.744 406.963 519.345 404.904 527.511L397.698 542.822L382.601 536.697L378.483 495.869L379.17 430.542L416.914 441.43Z" fill="#FFB9B9"/>
<path d="M426.178 217.552C426.178 217.552 427.551 240.008 424.805 246.813C422.06 253.618 435.099 266.547 435.099 266.547L455.687 240.008C455.687 240.008 441.962 226.398 445.393 211.428L426.178 217.552Z" fill="#FFB9B9"/>
<path d="M383.287 373.042C383.287 373.042 363.386 409.788 382.601 407.066C401.816 404.344 395.297 372.021 395.297 372.021" fill="#E6E6E6"/>
<path d="M395.669 382.199L402.195 311.283L401.852 268.134L386.738 271.134V310.907L383.647 383.325" fill="#FFB9B9"/>
<path d="M378.827 531.934L408.335 520.366L411.767 578.207C411.767 578.207 417.943 595.899 415.884 602.704C415.884 602.704 417.257 614.272 413.825 614.953C410.394 615.633 400.787 616.994 400.1 616.314C399.414 615.633 399.414 613.592 399.414 613.592C399.414 613.592 392.552 618.355 391.865 623.799C391.865 623.799 363.043 632.645 362.356 624.479C361.67 616.314 376.768 609.509 376.768 609.509L388.434 591.816L378.827 531.934Z" fill="#2F2E41"/>
<path d="M478.333 441.43C478.333 441.43 461.863 478.857 461.863 489.744C461.863 489.744 468.383 519.345 466.324 527.511L459.118 542.822L444.021 536.697L439.903 495.869L440.589 430.542L478.333 441.43Z" fill="#FFB9B9"/>
<path d="M441.275 531.934L470.784 520.366L474.216 578.207C474.216 578.207 480.392 595.899 478.333 602.704C478.333 602.704 479.706 614.272 476.274 614.953C472.843 615.633 463.236 616.994 462.549 616.314C461.863 615.633 461.863 613.592 461.863 613.592C461.863 613.592 455.001 618.355 454.314 623.799C454.314 623.799 425.492 632.645 424.805 624.479C424.119 616.314 439.217 609.509 439.217 609.509L450.883 591.816L441.275 531.934Z" fill="#2F2E41"/>
<path d="M455.005 201.904C455.003 207.263 453.008 212.433 449.402 216.425C445.796 220.416 440.833 222.949 435.461 223.539C430.09 224.129 424.687 222.734 420.288 219.622C415.889 216.509 412.801 211.897 411.617 206.669C411.256 205.106 411.075 203.508 411.079 201.904C411.083 196.131 413.399 190.595 417.517 186.514C421.636 182.433 427.22 180.141 433.042 180.141C438.865 180.141 444.449 182.433 448.567 186.514C452.686 190.595 455.001 196.131 455.005 201.904Z" fill="#FFB9B9"/>
<path d="M435.785 245.452L452.827 236.677L460.491 242.73C460.491 242.73 479.019 242.049 485.882 250.215C492.744 258.381 496.519 279.136 496.519 279.136C496.519 279.136 473.872 274.372 476.617 293.426L472.5 282.538L468.726 291.724L422.747 307.375L402.159 272.671C402.159 272.671 388.434 268.588 383.63 278.115C383.63 278.115 384.66 243.751 398.042 242.73C407.041 242.043 413.825 242.049 413.825 242.049L421.374 240.688L426.208 238.987L435.785 245.452Z" fill="#38A3A5"/>
<path d="M465.16 320.889C465.16 320.889 491.132 500.452 491.132 514.091C491.132 514.091 438.803 547.291 370.957 508.679L375.838 420.592L407.063 315.896C426.244 309.822 465.16 314.571 465.16 320.889Z" fill="#2F2E41"/>
<path d="M464.951 319.964L475.091 285.413C462.928 272.296 473.426 243.21 473.426 243.21L458.749 240.092C458.749 240.092 444.021 279.476 428.923 274.712C413.826 269.949 422.061 239.328 422.061 239.328L408.335 240.689L402.159 264.505L406.62 315.201C425.223 313.619 444.734 315.46 464.951 319.964Z" fill="#38A3A5"/>
<path d="M482.793 372.021L487.597 307.375L488.97 268.589L473.873 271.31V307.375L470.784 373.042" fill="#FFB9B9"/>
<path d="M470.784 373.042C470.784 373.042 450.883 409.788 470.098 407.066C489.313 404.344 482.794 372.021 482.794 372.021" fill="white"/>
<path d="M496.519 279.136C496.519 279.136 494.079 244.189 473.682 244.31V284.724C473.682 284.724 488.97 275.733 496.519 279.136Z" fill="#38A3A5"/>
<path d="M440.065 207.524C439.948 207.524 439.835 207.488 439.74 207.422C439.646 207.355 439.574 207.261 439.536 207.152C439.497 207.044 439.494 206.926 439.526 206.815C439.558 206.705 439.624 206.607 439.715 206.535L450.914 197.65C450.972 197.604 451.038 197.57 451.109 197.549C451.18 197.528 451.254 197.521 451.327 197.529C451.401 197.537 451.472 197.559 451.537 197.595C451.602 197.63 451.659 197.677 451.705 197.735C451.751 197.792 451.785 197.858 451.806 197.928C451.826 197.998 451.832 198.072 451.824 198.145C451.816 198.218 451.793 198.288 451.757 198.352C451.721 198.416 451.672 198.472 451.614 198.518L440.414 207.402C440.315 207.481 440.192 207.524 440.065 207.524Z" fill="white"/>
<path d="M440.912 220.851C440.666 221.15 440.42 221.45 440.162 221.728C437.19 223.064 433.956 223.727 430.694 223.668C427.431 223.609 424.223 222.83 421.303 221.388C418.382 219.946 415.822 217.876 413.809 215.33C411.796 212.784 410.38 209.825 409.665 206.669L420.277 204.733L440.912 206.669C436.186 212.377 436.757 214.354 440.912 220.851Z" fill="white"/>
<path d="M420.642 171.423C420.642 171.423 409.291 173.54 406.667 187.576C406.256 189.944 406.181 192.356 406.444 194.744C406.706 197.446 406.326 203.152 400.41 209.872C396.549 214.23 392.952 218.811 389.637 223.591L401.497 226.722L406.796 207.237C409.365 197.79 413.323 188.77 418.542 180.467L418.651 180.294C418.651 180.294 422.59 190.73 433.148 192.161L429.892 187.911C429.892 187.911 442.234 194.986 449.227 197.147C450.025 197.394 450.74 197.852 451.295 198.472C451.85 199.092 452.224 199.85 452.376 200.665C452.529 201.48 452.454 202.321 452.16 203.097C451.867 203.873 451.365 204.555 450.71 205.069C450.66 205.108 450.609 205.146 450.558 205.185C445.415 209.059 434.922 218.301 439.068 227.242C443.213 236.183 438.379 237.814 438.379 237.814L447.293 234.451L451.373 232.719L450.96 235.71L470.877 236.124C470.877 236.124 476.259 236.091 466.699 221.846C466.699 221.846 464.392 216.504 466.286 212.424C467.806 209.333 468.562 205.929 468.493 202.491C467.891 188.129 461.79 158.911 420.642 171.423Z" fill="#2F2E41"/>
<path d="M141.253 580.517C141.253 580.517 141.253 672.923 119.865 697.161C119.865 697.161 115.282 709.28 113.754 713.824C112.9 716.411 111.879 718.941 110.698 721.399V727.458C110.698 727.458 69.4503 722.914 64.8672 712.31L72.5057 703.22C72.5057 703.22 74.0334 701.706 72.5057 697.161C70.978 692.616 75.5611 692.616 75.5611 692.616L86.2551 668.379L84.7274 568.398L92.3659 430.546L158.057 427.516L141.253 580.517Z" fill="#2F2E41"/>
<path d="M107.643 718.369C107.643 718.369 118.337 750.181 107.643 751.696C96.9491 753.211 3.75893 754.725 5.28664 742.607C6.81435 730.488 37.3685 732.003 37.3685 732.003L69.4503 712.31L107.643 718.369Z" fill="#2F2E41"/>
<path d="M202.361 430.546C202.361 430.546 205.416 450.239 193.194 471.447C180.973 492.655 188.611 563.854 188.611 563.854L297.078 657.775C297.078 657.775 275.691 694.131 268.052 692.616C260.414 691.102 139.725 594.151 139.725 594.151L92.3657 436.605L202.361 430.546Z" fill="#2F2E41"/>
<path d="M295.588 653.761C295.588 653.761 328.41 661.835 323.976 671.602C319.541 681.37 270.942 760.23 261.437 752.463C251.933 744.695 269.58 719.916 269.58 719.916L269.98 682.504L295.588 653.761Z" fill="#2F2E41"/>
<path d="M177.917 148.785C177.93 156.766 175.163 164.506 170.085 170.697C166.069 175.632 160.769 179.383 154.758 181.545C148.747 183.707 142.254 184.197 135.982 182.962C132.842 182.361 129.802 181.324 126.953 179.882C122.429 177.62 118.451 174.415 115.294 170.485C112.136 166.555 109.874 161.995 108.662 157.116C107.979 154.391 107.636 151.593 107.641 148.785C107.641 139.544 111.343 130.682 117.933 124.148C124.523 117.613 133.46 113.943 142.779 113.943C152.098 113.943 161.036 117.613 167.626 124.148C174.215 130.682 177.917 139.544 177.917 148.785Z" fill="#A0616A"/>
<path d="M170.427 161.076L168.873 205.911L139.307 217.494C139.307 217.494 136.408 171.586 132.315 169.041C128.222 166.496 170.427 161.076 170.427 161.076Z" fill="#A0616A"/>
<path d="M132.086 223.011C132.086 223.011 173.334 182.109 184.028 183.624C194.722 185.139 194.722 189.684 194.722 192.713C194.722 195.743 191.667 197.258 194.722 198.773C197.778 200.288 200.833 198.773 200.833 203.317C200.833 207.862 228.332 253.308 219.166 303.298C209.999 353.288 199.305 377.526 203.888 404.793C208.472 432.061 205.416 438.12 205.416 438.12C205.416 438.12 90.8381 447.21 89.3104 436.606C87.7828 426.002 93.8935 432.061 86.255 424.487C78.6165 416.912 81.6719 416.912 81.6719 412.368C81.6719 407.823 115.281 223.011 132.086 223.011Z" fill="#38A3A5"/>
<path d="M153.474 429.031C153.474 429.031 135.142 472.962 121.392 462.358C107.643 451.754 127.503 415.397 127.503 415.397L153.474 429.031Z" fill="white"/>
<path d="M197.778 226.04C197.778 226.04 233.671 230.115 220.308 295.489C206.944 360.863 155.002 436.606 155.002 436.606L119.865 419.942L165.696 330.565L155.002 274.516C155.002 274.516 148.891 221.496 197.778 226.04Z" fill="#38A3A5"/>
<path opacity="0.2" d="M166.46 331.323L116.045 414.64L120.628 419.185L166.46 331.323Z" fill="black"/>
<path opacity="0.2" d="M193.145 370.149L152.71 435.848H166.46L193.145 370.149Z" fill="black"/>
<path opacity="0.2" d="M101.808 489.542L99.7769 490.31L139.978 594.829L142.009 594.061L101.808 489.542Z" fill="black"/>
<path d="M132.303 231.328C133.503 231.328 134.476 230.363 134.476 229.173C134.476 227.983 133.503 227.018 132.303 227.018C131.102 227.018 130.129 227.983 130.129 229.173C130.129 230.363 131.102 231.328 132.303 231.328Z" fill="#D0CDE1"/>
<path d="M113.83 289.513C114.062 289.513 114.288 289.439 114.475 289.302C114.662 289.166 114.799 288.973 114.868 288.753L133.341 229.491C133.383 229.356 133.398 229.214 133.385 229.073C133.372 228.932 133.331 228.795 133.265 228.669C133.198 228.544 133.107 228.433 132.998 228.342C132.888 228.252 132.761 228.184 132.624 228.142C132.488 228.1 132.345 228.085 132.202 228.099C132.06 228.112 131.922 228.153 131.796 228.219C131.669 228.285 131.558 228.375 131.466 228.484C131.375 228.593 131.307 228.719 131.265 228.855L112.792 288.118C112.742 288.279 112.731 288.449 112.76 288.615C112.788 288.782 112.856 288.939 112.956 289.075C113.057 289.21 113.189 289.321 113.341 289.397C113.492 289.473 113.66 289.513 113.83 289.513V289.513Z" fill="#D0CDE1"/>
<path d="M135.734 175.47L126.953 183.754C117.91 179.241 109.175 167.082 106.709 157.116L118.231 152.329C118.983 162.493 126.259 169.25 135.734 175.47Z" fill="white"/>
<path d="M137.924 156.668C137.889 156.668 137.854 156.666 137.82 156.661L117.399 153.768C117.304 153.755 117.213 153.723 117.13 153.675C117.048 153.626 116.976 153.562 116.918 153.486C116.861 153.41 116.819 153.324 116.795 153.232C116.771 153.14 116.766 153.044 116.779 152.95C116.793 152.856 116.825 152.766 116.873 152.684C116.922 152.602 116.987 152.531 117.063 152.474C117.14 152.417 117.227 152.375 117.32 152.351C117.413 152.328 117.509 152.322 117.604 152.336L138.025 155.228C138.207 155.254 138.373 155.347 138.489 155.49C138.605 155.632 138.663 155.812 138.65 155.995C138.637 156.177 138.555 156.348 138.42 156.473C138.285 156.598 138.108 156.667 137.924 156.668Z" fill="white"/>
<path d="M135.005 175.47C134.877 175.471 134.752 175.438 134.642 175.375C134.531 175.312 134.439 175.222 134.375 175.112C134.311 175.003 134.276 174.88 134.275 174.753C134.274 174.627 134.307 174.503 134.37 174.393L141.136 162.449C141.182 162.366 141.245 162.293 141.321 162.234C141.396 162.175 141.482 162.131 141.574 162.106C141.667 162.08 141.763 162.073 141.859 162.084C141.954 162.095 142.046 162.125 142.13 162.172C142.213 162.218 142.287 162.281 142.346 162.356C142.405 162.431 142.449 162.516 142.474 162.608C142.5 162.7 142.507 162.795 142.496 162.89C142.484 162.984 142.453 163.075 142.406 163.158L135.64 175.102C135.577 175.214 135.485 175.307 135.373 175.372C135.261 175.436 135.134 175.47 135.005 175.47Z" fill="white"/>
<path d="M158.684 169.719C155.839 168.227 152.535 167.92 149.456 166.993C138.44 163.677 131.061 151.329 133.417 140.155C133.852 138.722 134.048 137.228 133.995 135.732C133.584 132.423 130.169 130.287 126.894 129.529C123.62 128.771 120.135 128.881 117.006 127.662C112.173 125.779 108.963 120.855 108.267 115.753C107.571 110.651 109.098 105.448 111.581 100.926L112.764 104.301C114.568 102.787 115.907 100.801 116.629 98.5695C117.973 98.7935 119.237 99.356 120.299 100.203C121.361 101.05 122.186 102.153 122.695 103.407C124.594 104.517 124.868 99.9582 126.965 99.2856C127.843 99.004 128.746 99.539 129.582 99.9258C133.808 101.88 138.718 100.209 143.251 99.1259C151.101 97.2588 159.283 97.2493 167.137 99.098C172.355 100.332 177.52 102.481 181.253 106.3C184.32 109.437 186.23 113.493 187.857 117.552C191.862 127.546 194.507 138.359 193.185 149.033C192.084 157.767 188.399 165.982 182.595 172.642C179.571 176.097 169.706 188.148 164.297 186.094C157.5 183.512 166.692 173.917 158.684 169.719Z" fill="#2F2E41"/>
</svg>
